<mxfile host="app.diagrams.net" modified="2023-08-29T22:57:40.533Z" agent="Mozilla/5.0 (Windows NT 10.0; Win64; x64) AppleWebKit/537.36 (KHTML, like Gecko) Chrome/116.0.0.0 Safari/537.36 Edg/116.0.1938.62" version="21.7.0" etag="jPJQcNe8x7yIfn_pwshQ" type="github">
  <diagram name="Page-1" id="FEHvpJru99X4V2HBFaW-">
    <mxGraphModel>
      <root>
        <mxCell id="0" />
        <mxCell id="1" parent="0" />
      </root>
    </mxGraphModel>
  </diagram>
</mxfile>
